<?xml version="1.0" standalone="no"?>
<!DOCTYPE svg PUBLIC "-//W3C//DTD SVG 20010904//EN"
 "http://www.w3.org/TR/2001/REC-SVG-20010904/DTD/svg10.dtd">
<svg version="1.0" xmlns="http://www.w3.org/2000/svg"
 width="800.000000pt" height="800.000000pt" viewBox="0 0 800.000000 800.000000"
 preserveAspectRatio="xMidYMid meet">
<metadata>
Created by potrace 1.11, written by Peter Selinger 2001-2013
</metadata>
<g transform="translate(0.000000,800.000000) scale(0.100000,-0.100000)"
fill="#000000" stroke="none">
<path d="M4905 5374 c-93 -24 -183 -46 -200 -49 -16 -3 -52 -12 -80 -20 -27
-8 -61 -16 -75 -18 -22 -5 -175 -42 -272 -68 -27 -7 -36 -15 -35 -28 1 -15 12
-20 49 -25 75 -10 127 -67 145 -156 8 -41 7 -2122 -2 -2160 -16 -74 -52 -121
-115 -149 -37 -17 -62 -48 -42 -52 25 -5 1046 -3 1053 2 19 11 -3 37 -37 44
-50 9 -119 78 -135 135 -10 35 -13 316 -13 1315 l-1 1270 -35 2 c-19 0 -111
-19 -205 -43z"/>
<path d="M925 5270 c-483 -85 -790 -403 -800 -830 -8 -347 164 -574 610 -803
50 -25 177 -89 284 -142 348 -172 470 -271 514 -421 44 -148 -29 -297 -180
-369 -81 -39 -149 -53 -258 -53 -368 0 -616 273 -755 834 -9 35 -15 42 -41 48
-39 8 -46 3 -54 -37 -3 -17 -15 -72 -25 -122 -78 -364 -130 -628 -126 -632 13
-14 165 -68 261 -93 262 -70 606 -100 853 -76 259 25 515 144 680 315 164 170
235 352 228 586 -6 211 -73 357 -229 501 -121 112 -268 193 -632 349 -273 117
-385 181 -468 269 -148 154 -151 364 -7 503 39 37 138 82 215 96 316 60 530
-95 649 -471 27 -87 27 -86 53 -207 9 -44 17 -81 17 -82 1 0 17 -4 37 -7 44
-7 41 -13 98 189 22 77 63 219 91 315 29 96 52 179 53 183 3 16 -233 100 -342
122 -37 8 -178 32 -231 41 -102 15 -393 12 -495 -6z"/>
<path d="M6266 5062 c-84 -205 -341 -508 -550 -647 -87 -58 -186 -109 -229
-120 -20 -5 -27 -14 -27 -30 0 -22 3 -23 78 -23 42 0 84 0 93 -1 14 -1 16 -63
16 -643 1 -462 4 -656 13 -688 41 -157 142 -260 302 -310 43 -13 172 -18 238
-8 95 14 223 72 315 141 91 69 255 265 255 305 0 6 -9 16 -20 22 -18 10 -27 5
-66 -32 -126 -120 -272 -85 -325 77 -10 31 -13 166 -14 580 -1 297 1 546 3
553 3 9 49 12 183 12 112 0 179 4 180 10 1 6 1 19 1 30 0 51 8 49 -159 48 -87
0 -169 0 -183 1 l-25 1 0 385 0 385 -30 0 c-26 0 -32 -6 -49 -48z"/>
<path d="M3087 4404 c-1 -1 -45 -4 -97 -8 -290 -20 -494 -114 -570 -263 -32
-62 -35 -187 -7 -244 46 -93 132 -142 247 -142 89 1 147 23 210 79 76 68 112
158 125 309 8 100 24 161 46 181 28 25 121 25 150 -1 49 -44 53 -71 57 -367
l4 -277 -39 -10 c-21 -5 -58 -15 -83 -21 -62 -16 -275 -87 -319 -106 -393
-169 -553 -359 -519 -618 47 -351 493 -450 872 -194 33 22 70 51 83 64 30 31
37 30 52 -3 71 -159 251 -230 486 -193 168 27 351 139 424 262 l22 36 -23 16
c-21 15 -24 15 -38 -3 -24 -31 -82 -61 -118 -61 -34 0 -91 43 -93 72 -1 7 -2
236 -4 508 l-2 495 -26 73 c-33 94 -76 161 -144 221 -118 105 -296 171 -501
187 -89 6 -192 11 -195 8z m164 -1111 c0 -170 2 -327 5 -351 6 -41 5 -43 -33
-58 -58 -25 -132 -22 -189 7 -111 57 -156 209 -113 379 35 138 113 230 256
301 32 15 61 29 66 29 4 0 7 -138 8 -307z"/>
<path d="M7390 3493 c-66 -11 -145 -48 -209 -99 -102 -82 -160 -196 -166 -326
-15 -305 259 -538 555 -473 97 21 203 92 266 178 180 247 75 589 -214 697 -52
20 -175 32 -232 23z"/>
</g>
</svg>
